<?xml version="1.0" encoding="utf-8"?>
<!-- Generator: Adobe Illustrator 21.1.0, SVG Export Plug-In . SVG Version: 6.00 Build 0)  -->
<svg version="1.1" id="Layer_1" xmlns="http://www.w3.org/2000/svg" xmlns:xlink="http://www.w3.org/1999/xlink" x="0px" y="0px"
	 viewBox="0 0 1366 768" style="enable-background:new 0 0 1366 768;" xml:space="preserve">
<style type="text/css">
	.st0{fill:none;stroke:#79C9B9;stroke-width:10;stroke-linecap:round;stroke-linejoin:round;stroke-miterlimit:10;}
	
		.st1{fill-rule:evenodd;clip-rule:evenodd;fill:none;stroke:#B97ACE;stroke-width:10;stroke-linecap:round;stroke-linejoin:round;stroke-miterlimit:10;}
	.st2{fill-rule:evenodd;clip-rule:evenodd;}
	.st3{fill-rule:evenodd;clip-rule:evenodd;fill:#B97ACE;}
	.st4{fill-rule:evenodd;clip-rule:evenodd;fill:#79C9B9;}
</style>
<g>
	<line class="st0" x1="1117.3" y1="357.7" x2="1043" y2="432"/>
</g>
<g>
	<line class="st0" x1="1146" y1="365" x2="1071.7" y2="439.3"/>
</g>
<g>
	<line class="st0" x1="1174.8" y1="372.2" x2="1100.5" y2="446.5"/>
</g>
<g>
	<line class="st0" x1="1203.5" y1="379.5" x2="1129.2" y2="453.8"/>
</g>
<g>
	<line class="st0" x1="1232.3" y1="386.7" x2="1158" y2="461"/>
</g>
<g>
	<line class="st0" x1="1261" y1="394" x2="1186.7" y2="468.3"/>
</g>
<g>
	<polyline class="st1" points="315.3,147 293.9,125.7 272.6,147 272.6,147 251.3,125.7 229.9,147 230,147 208.6,125.7 187.3,147 
		187.3,147 166,125.7 144.7,147 144.7,147 123.4,125.7 102,147 102.1,147 80.7,125.7 59.4,147 59.4,147 38.1,125.7 16.7,147 	"/>
	<polyline class="st1" points="315.3,177 293.9,155.7 272.6,177 272.6,177 251.3,155.7 229.9,177 230,177 208.6,155.7 187.3,177 
		187.3,177 166,155.7 144.7,177 144.7,177 123.4,155.7 102,177 102.1,177 80.7,155.7 59.4,177 59.4,177 38.1,155.7 16.7,177 	"/>
	<polyline class="st1" points="315.3,207 293.9,185.7 272.6,207 272.6,207 251.3,185.7 229.9,207 230,207 208.6,185.7 187.3,207 
		187.3,207 166,185.7 144.7,207 144.7,207 123.4,185.7 102,207 102.1,207 80.7,185.7 59.4,207 59.4,207 38.1,185.7 16.7,207 	"/>
</g>
<g>
	<circle class="st3" cx="999" cy="196" r="5"/>
	<circle class="st3" cx="999" cy="176" r="5"/>
	<circle class="st3" cx="999" cy="156" r="5"/>
	<circle class="st3" cx="999" cy="136" r="5"/>
	<circle class="st3" cx="999" cy="116" r="5"/>
	<circle class="st3" cx="999" cy="96" r="5"/>
	<circle class="st3" cx="999" cy="76" r="5"/>
	<circle class="st3" cx="999" cy="56" r="5"/>
	<circle class="st3" cx="1016" cy="186" r="5"/>
	<circle class="st3" cx="1016" cy="166" r="5"/>
	<circle class="st3" cx="1016" cy="146" r="5"/>
	<circle class="st3" cx="1016" cy="126" r="5"/>
	<circle class="st3" cx="1016" cy="106" r="5"/>
	<circle class="st3" cx="1016" cy="86" r="5"/>
	<circle class="st3" cx="1016" cy="66" r="5"/>
	<circle class="st3" cx="1016" cy="46" r="5"/>
	<circle class="st3" cx="1033" cy="196" r="5"/>
	<circle class="st3" cx="1033" cy="176" r="5"/>
	<circle class="st3" cx="1033" cy="156" r="5"/>
	<circle class="st3" cx="1033" cy="136" r="5"/>
	<circle class="st3" cx="1033" cy="116" r="5"/>
	<circle class="st3" cx="1033" cy="96" r="5"/>
	<circle class="st3" cx="1033" cy="76" r="5"/>
	<circle class="st3" cx="1033" cy="56" r="5"/>
	<circle class="st3" cx="1050" cy="186" r="5"/>
	<circle class="st3" cx="1050" cy="166" r="5"/>
	<circle class="st3" cx="1050" cy="146" r="5"/>
	<circle class="st3" cx="1050" cy="126" r="5"/>
	<circle class="st3" cx="1050" cy="106" r="5"/>
	<circle class="st3" cx="1050" cy="86" r="5"/>
	<circle class="st3" cx="1050" cy="66" r="5"/>
	<circle class="st3" cx="1050" cy="46" r="5"/>
	<circle class="st3" cx="1067" cy="196" r="5"/>
	<circle class="st3" cx="1067" cy="176" r="5"/>
	<circle class="st3" cx="1067" cy="156" r="5"/>
	<circle class="st3" cx="1067" cy="136" r="5"/>
	<circle class="st3" cx="1067" cy="116" r="5"/>
	<circle class="st3" cx="1067" cy="96" r="5"/>
	<circle class="st3" cx="1067" cy="76" r="5"/>
	<circle class="st3" cx="1067" cy="56" r="5"/>
</g>
<path class="st4" d="M159,419l-34.3-34.3c-3.9-3.9-3.9-10.2,0-14l34.3-34.3c3.9-3.9,10.2-3.9,14,0l34.3,34.3c3.9,3.9,3.9,10.2,0,14
	L173,419C169.1,422.9,162.9,422.9,159,419z"/>
<path class="st3" d="M400.8,626.1v-85.6c0-5.5,4.4-9.9,9.9-9.9h85.6c5.5,0,9.9,4.4,9.9,9.9v85.6c0,5.5-4.4,9.9-9.9,9.9h-85.6
	C405.3,636,400.8,631.6,400.8,626.1z"/>
<path class="st4" d="M1027.2,543.9l-83,22.2c-7.5,2-10,11.4-4.5,16.9l60.8,60.8c5.5,5.5,14.9,3,16.9-4.5l22.2-83
	C1041.6,548.8,1034.7,541.9,1027.2,543.9z"/>
<path class="st3" d="M733.5,221.1l-14.2-52.8c-2-7.5-11.4-10-16.9-4.5l-38.7,38.7c-5.5,5.5-3,14.9,4.5,16.9l52.8,14.2
	C728.7,235.4,735.5,228.6,733.5,221.1z"/>
<circle class="st3" cx="819.5" cy="542.5" r="40.5"/>
<circle class="st4" cx="122" cy="675" r="54"/>
</svg>
